<svg width="110" height="30" viewBox="0 0 110 30" fill="none" xmlns="http://www.w3.org/2000/svg">
<path d="M14.7083 9.66667C12.875 9.08333 10.375 8.58333 7.95833 8.58333C4.08333 8.58333 0.5 10.125 0.5 14.2083C0.5 21.875 11.4167 20.2083 11.4167 23.7917C11.4167 25.5833 9.66667 26.0417 7.5 26.0417C5 26.0417 1.95833 25.1667 0.541667 24.625L0 28.8333C2 29.4167 4.91667 30 7.54167 30C11.8333 30 15.625 28.75 15.625 24.0417C15.625 16.2917 4.70833 18.2917 4.70833 14.375C4.70833 13.0417 6.29167 12.5417 8.16667 12.5417C10.4583 12.5417 13.2083 13.1667 14.125 13.5L14.7083 9.66667Z" fill="#1DA1F2"/>
<path d="M34.3496 29.7083V8.875H30.1829V22.875C28.8913 24.3333 26.5579 26.0417 24.4329 26.0417C22.6829 26.0417 22.0579 25.0833 22.0579 23.375V8.875H17.8913V23.5833C17.8913 27.7917 20.1413 30 23.9746 30C26.2663 30 28.3079 28.9583 30.1829 27.2917L30.4746 29.7083H34.3496Z" fill="#1DA1F2"/>
<path d="M50.7809 9.66667C48.9476 9.08333 46.4476 8.58333 44.0309 8.58333C40.1559 8.58333 36.5726 10.125 36.5726 14.2083C36.5726 21.875 47.4893 20.2083 47.4893 23.7917C47.4893 25.5833 45.7393 26.0417 43.5726 26.0417C41.0726 26.0417 38.0309 25.1667 36.6143 24.625L36.0726 28.8333C38.0726 29.4167 40.9893 30 43.6143 30C47.9059 30 51.6976 28.75 51.6976 24.0417C51.6976 16.2917 40.7809 18.2917 40.7809 14.375C40.7809 13.0417 42.3643 12.5417 44.2393 12.5417C46.5309 12.5417 49.2809 13.1667 50.1976 13.5L50.7809 9.66667Z" fill="#1DA1F2"/>
<path d="M59.4222 12.8333H63.5889V8.875H59.4222V2.625L55.2555 3.45833V8.875H53.0055V12.8333H55.2555V24.125C55.2555 28.0833 57.2139 30 60.2555 30C61.3805 30 62.4222 29.6667 63.4639 29.125L63.2139 25.3333C62.5055 25.75 61.7139 26.0417 61.0055 26.0417C60.1305 26.0417 59.4222 25.5417 59.4222 24.0417V12.8333Z" fill="#1DA1F2"/>
<path d="M81.1331 29.7083V15.375C81.1331 10.3333 77.2998 8.58333 73.0498 8.58333C70.6748 8.58333 68.1748 9.125 66.0915 9.91667L66.5915 13.9583C67.7581 13.4167 70.5915 12.5417 73.0081 12.5417C75.1748 12.5417 76.9665 13.25 76.9665 15.5833V16.6667L72.3415 16.9167C67.7998 17.1667 64.8831 19.2083 64.8831 23.7917C64.8831 28.0417 67.7165 30 71.0498 30C73.0081 30 75.1331 29.2917 76.9665 27.9583L77.2581 29.7083H81.1331ZM72.4248 20.75L76.9665 20.5V24.2083C75.5498 25.0833 73.6331 26.0417 71.4248 26.0417C70.0081 26.0417 69.0498 25.125 69.0498 23.7917C69.0498 22.2083 69.9665 20.875 72.4248 20.75Z" fill="#1DA1F2"/>
<path d="M89.6702 29.7083V12.7083C89.6702 10 88.6702 8.875 85.7536 8.875H83.5452V12.8333H84.8786C85.3369 12.8333 85.5036 13 85.5036 13.4583V29.7083H89.6702ZM83.9202 2.95833C83.9202 4.58333 85.2536 5.91667 86.8786 5.91667C88.5036 5.91667 89.8369 4.58333 89.8369 2.95833C89.8369 1.33333 88.5036 0 86.8786 0C85.2536 0 83.9202 1.33333 83.9202 2.95833Z" fill="#1DA1F2"/>
<path d="M93.2005 8.875V29.7083H97.3672V16C98.8672 14.125 101.159 12.5417 103.159 12.5417C104.701 12.5417 105.492 13.1667 105.492 14.7917V29.7083H109.659V14.75C109.659 10.3333 106.867 8.58333 103.659 8.58333C101.201 8.58333 99.1588 9.75 97.3672 11.4583L97.0755 8.875H93.2005Z" fill="#1DA1F2"/>
</svg>
